<svg version="1.1" xmlns="http://www.w3.org/2000/svg" viewBox="0 0 91.33331298828125 97.33331298828125" width="91.33331298828125" height="97.33331298828125">
  <!-- svg-source:excalidraw -->
  
  <defs>
    <style class="style-fonts">
      @font-face {
        font-family: "Virgil";
        src: url("https://excalidraw.com/Virgil.woff2");
      }
      @font-face {
        font-family: "Cascadia";
        src: url("https://excalidraw.com/Cascadia.woff2");
      }
    </style>
    
  </defs>
  <g stroke-linecap="round" transform="translate(10 10) rotate(0 35.666656494140625 38.666656494140625)"><path d="M8.59 12.77 C8.59 12.77, 8.59 12.77, 8.59 12.77 M8.59 12.77 C8.59 12.77, 8.59 12.77, 8.59 12.77 M3.35 24.84 C6.72 17.46, 14.05 16.33, 20.57 5.24 M5.29 24.33 C8.37 18.45, 15.35 11.22, 19.15 6.84 M2.16 36.01 C6.44 25.7, 16.21 16.5, 27.48 1.95 M-0.1 34.41 C10.49 23.36, 20.37 12.3, 28.54 2.16 M1.7 38.59 C11.34 30.69, 17.31 19.49, 33.16 3.34 M3.42 38.69 C9.65 31.06, 14.28 24.21, 33.87 2.01 M2.94 44.17 C14.37 32.4, 21.28 22.36, 39.69 4.63 M2.8 43.17 C11.47 32.8, 22.09 22.24, 38.7 3.19 M4.68 49.34 C17.72 35.62, 28.31 20.62, 42.98 3.68 M5.24 48.11 C13.25 37.86, 23.24 26.52, 43.05 4.1 M7.54 53.32 C21.29 32.92, 36.23 17.61, 47.92 1.68 M6.42 53.33 C18.76 37.88, 31.02 23.88, 48.84 3.18 M4.5 59.46 C20.88 41.28, 36.71 23.93, 50.23 5.46 M5.25 59.48 C24.29 38.87, 41.96 17.94, 51.98 4.99 M6.53 60.42 C22.42 46.48, 35.97 29.82, 54.24 9.2 M7.89 61.02 C25.14 42.3, 42.85 21.56, 54.42 7.63 M11.42 63.52 C24.39 50.26, 33.11 36.5, 57.42 10.18 M10.63 65.25 C25.79 47.41, 41.55 29.45, 58.91 10.25 M12.7 68.18 C23.24 53.9, 34.98 43.7, 60.24 15.05 M13.24 67.53 C29.24 50.87, 41.71 34.89, 61.08 13.12 M17.51 72.17 C34.68 50.34, 47.28 34.1, 65.28 16.56 M16.97 71.29 C26.18 58.19, 36.8 46.88, 64.89 16.02 M21.17 73.61 C28.9 59.93, 40.4 47.31, 67.78 19.07 M19.42 73.79 C29.67 62.38, 39.26 51.63, 67.33 17.62 M24.28 77.5 C32.97 63.6, 43.03 53.02, 68.15 22.32 M21.93 76.34 C38.92 57.62, 53.89 41.04, 67.25 22.86 M28.57 75.67 C38.72 60.9, 49.63 49.35, 68.38 28.14 M27.56 76.07 C40.93 60.18, 55.97 44.66, 69.97 27.51 M32.81 75.85 C41.32 66.48, 49.62 58.45, 67.96 33.47 M31.38 76.72 C43.83 63.14, 55.21 50.77, 69.51 34.93 M35.85 77.35 C44.6 69.19, 50.74 60.86, 71.02 38.6 M37.68 78.05 C44.59 67.9, 53.26 57.59, 69.9 38.01 M41.19 79.34 C49.86 68.98, 62.04 57.59, 73.49 44.45 M42.83 77.93 C49.33 71.24, 56.03 63.45, 72.67 42.24 M45.5 80.13 C53.28 67.86, 62.23 57.57, 69.05 51.33 M46.01 79.29 C55.04 67.91, 64.1 58.71, 68.99 52.23" stroke="#b2f2bb" stroke-width="0.5" fill="none"></path><path d="M49.37 2.68 C55.81 4.92, 63.34 11.79, 66.9 18.23 C70.46 24.67, 71.52 33.61, 70.74 41.33 C69.97 49.05, 66.72 58.59, 62.23 64.56 C57.74 70.54, 50.59 75.52, 43.82 77.17 C37.04 78.83, 28.18 77.69, 21.6 74.5 C15.01 71.31, 7.93 64.55, 4.32 58.05 C0.7 51.54, -0.84 43.05, -0.08 35.46 C0.67 27.86, 4.32 18.09, 8.83 12.49 C13.35 6.89, 19.62 3.18, 27.01 1.88 C34.4 0.57, 48.17 3.41, 53.16 4.66 C58.16 5.9, 57.15 8.61, 56.98 9.34 M41.46 1.3 C48.03 2.28, 56.21 6.08, 61.05 11.52 C65.89 16.97, 69.45 26.29, 70.52 33.99 C71.58 41.69, 70.68 50.99, 67.44 57.72 C64.21 64.44, 57.64 71.43, 51.1 74.34 C44.55 77.24, 34.89 76.69, 28.18 75.15 C21.48 73.61, 15.74 70.66, 10.86 65.12 C5.98 59.58, 0.01 49.3, -1.07 41.92 C-2.15 34.54, 0.79 27.11, 4.38 20.84 C7.97 14.56, 13.92 7.42, 20.45 4.26 C26.99 1.09, 40.03 2.24, 43.59 1.85 C47.15 1.47, 42.25 1.49, 41.83 1.97" stroke="#1e1e1e" stroke-width="1" fill="none"></path></g><g transform="translate(32.0001220703125 13.333343505859375) rotate(0 5 12.5)"><text x="0" y="0" font-family="Virgil, Segoe UI Emoji" font-size="20px" fill="#1e1e1e" text-anchor="start" style="white-space: pre;" direction="ltr" dominant-baseline="text-before-edge"></text></g><g transform="translate(28.00006103515625 28.66668701171875) rotate(0 18 22.5)"><text x="0" y="0" font-family="Virgil, Segoe UI Emoji" font-size="36px" fill="#1e1e1e" text-anchor="start" style="white-space: pre;" direction="ltr" dominant-baseline="text-before-edge">あ</text></g></svg>